<svg xmlns="http://www.w3.org/2000/svg" xmlns:cc="http://web.resource.org/cc/" xmlns:svg="http://www.w3.org/2000/svg" xmlns:xlink="http://www.w3.org/1999/xlink" id="svg2" width="256" height="256" version="1.0"><defs id="defs4"><linearGradient id="linearGradient3784"><stop style="stop-color:#ffe133;stop-opacity:1" id="stop3786" offset="0"/><stop style="stop-color:#d18500;stop-opacity:1" id="stop3788" offset="1"/></linearGradient><linearGradient id="linearGradient3773"><stop style="stop-color:#3521ff;stop-opacity:1" id="stop3775" offset="0"/><stop style="stop-color:#0f00b1;stop-opacity:1" id="stop3777" offset="1"/></linearGradient><linearGradient id="linearGradient3762"><stop style="stop-color:#ff2f2f;stop-opacity:1" id="stop3764" offset="0"/><stop style="stop-color:#810b0b;stop-opacity:1" id="stop3766" offset="1"/></linearGradient><linearGradient id="linearGradient3733"><stop style="stop-color:#39ff2e;stop-opacity:1" id="stop3735" offset="0"/><stop style="stop-color:#09b000;stop-opacity:1" id="stop3737" offset="1"/></linearGradient><linearGradient id="linearGradient3881" x1="369.463" x2="369.463" y1="526.301" y2="543.776" gradientUnits="userSpaceOnUse" xlink:href="#linearGradient3733"/><linearGradient id="linearGradient3883" x1="425.795" x2="428.965" y1="521.427" y2="538.295" gradientUnits="userSpaceOnUse" xlink:href="#linearGradient3762"/><linearGradient id="linearGradient3885" x1="305.282" x2="302.247" y1="517.372" y2="533.086" gradientUnits="userSpaceOnUse" xlink:href="#linearGradient3773"/><linearGradient id="linearGradient3887" x1="451.83" x2="451.563" y1="509.795" y2="526.715" gradientUnits="userSpaceOnUse" xlink:href="#linearGradient3784"/><linearGradient id="linearGradient4181" x1="451.83" x2="451.563" y1="509.795" y2="526.715" gradientTransform="matrix(1.1049029,0,0,1.016701,-272.40934,-353.5597)" gradientUnits="userSpaceOnUse" xlink:href="#linearGradient3784"/><linearGradient id="linearGradient4184" x1="305.282" x2="302.247" y1="517.372" y2="533.086" gradientTransform="matrix(1.1049029,0,0,1.016701,-272.40934,-353.5597)" gradientUnits="userSpaceOnUse" xlink:href="#linearGradient3773"/><linearGradient id="linearGradient4187" x1="425.795" x2="428.965" y1="521.427" y2="538.295" gradientTransform="matrix(1.1049029,0,0,1.016701,-272.40934,-353.5597)" gradientUnits="userSpaceOnUse" xlink:href="#linearGradient3762"/><linearGradient id="linearGradient4190" x1="369.463" x2="369.463" y1="526.301" y2="543.776" gradientTransform="matrix(1.1049029,0,0,1.016701,-272.40934,-353.5597)" gradientUnits="userSpaceOnUse" xlink:href="#linearGradient3733"/><linearGradient id="linearGradient4247" x1="369.463" x2="369.463" y1="526.301" y2="543.776" gradientTransform="matrix(1.1049029,0,0,1.016701,-272.40934,-353.5597)" gradientUnits="userSpaceOnUse" xlink:href="#linearGradient3733"/><linearGradient id="linearGradient4249" x1="425.795" x2="428.965" y1="521.427" y2="538.295" gradientTransform="matrix(1.1049029,0,0,1.016701,-272.40934,-353.5597)" gradientUnits="userSpaceOnUse" xlink:href="#linearGradient3762"/><linearGradient id="linearGradient4251" x1="305.282" x2="302.247" y1="517.372" y2="533.086" gradientTransform="matrix(1.1049029,0,0,1.016701,-272.40934,-353.5597)" gradientUnits="userSpaceOnUse" xlink:href="#linearGradient3773"/><linearGradient id="linearGradient4253" x1="451.83" x2="451.563" y1="509.795" y2="526.715" gradientTransform="matrix(1.1049029,0,0,1.016701,-272.40934,-353.5597)" gradientUnits="userSpaceOnUse" xlink:href="#linearGradient3784"/></defs><metadata id="metadata7"/><g id="layer1"><g id="g4221" transform="translate(2.9429282e-6,-23.428574)"><g id="g3828" transform="matrix(1.3936475,0,0,1.3936475,-453.84947,-525.84782)"><rect style="opacity:1;fill:#bdbdbd;fill-opacity:1;fill-rule:nonzero;stroke:none;stroke-width:10;stroke-linejoin:miter;stroke-miterlimit:4;stroke-dasharray:none;stroke-opacity:1" id="rect3820" width="1.796" height="78.287" x="377.776" y="429.648" transform="matrix(0.9999997,-7.8466303e-4,1.3192363e-5,1,0,0)"/><rect style="opacity:1;fill:#bdbdbd;fill-opacity:1;fill-rule:nonzero;stroke:none;stroke-width:10;stroke-linejoin:miter;stroke-miterlimit:4;stroke-dasharray:none;stroke-opacity:1" id="rect3822" width="1.796" height="78.287" x="409.218" y="429.673" transform="matrix(0.9999997,-7.8466302e-4,1.3192363e-5,1,0,0)"/><rect style="opacity:1;fill:#bdbdbd;fill-opacity:1;fill-rule:nonzero;stroke:none;stroke-width:10;stroke-linejoin:miter;stroke-miterlimit:4;stroke-dasharray:none;stroke-opacity:1" id="rect3826" width="1.796" height="78.287" x="440.785" y="429.698" transform="matrix(0.9999997,-7.84663e-4,1.3192363e-5,1,0,0)"/></g><g id="g3814" transform="matrix(1.3936475,0,0,1.3936475,-453.84947,-525.84782)"><rect style="opacity:1;fill:#bdbdbd;fill-opacity:1;fill-rule:nonzero;stroke:none;stroke-width:10;stroke-linejoin:miter;stroke-miterlimit:4;stroke-dasharray:none;stroke-opacity:1" id="rect3806" width="1.796" height="120.966" x="489.436" y="-468.077" transform="matrix(1.2914396e-3,0.9999992,-1,8.7558121e-5,0,0)"/><rect style="opacity:1;fill:#bdbdbd;fill-opacity:1;fill-rule:nonzero;stroke:none;stroke-width:10;stroke-linejoin:miter;stroke-miterlimit:4;stroke-dasharray:none;stroke-opacity:1" id="rect3808" width="1.796" height="120.966" x="474.198" y="-468.096" transform="matrix(1.2914396e-3,0.9999992,-1,8.7558121e-5,0,0)"/><rect style="opacity:1;fill:#bdbdbd;fill-opacity:1;fill-rule:nonzero;stroke:none;stroke-width:10;stroke-linejoin:miter;stroke-miterlimit:4;stroke-dasharray:none;stroke-opacity:1" id="rect3810" width="1.796" height="120.966" x="458.288" y="-468.117" transform="matrix(1.2914396e-3,0.9999992,-1,8.7558121e-5,0,0)"/><rect style="opacity:1;fill:#bdbdbd;fill-opacity:1;fill-rule:nonzero;stroke:none;stroke-width:10;stroke-linejoin:miter;stroke-miterlimit:4;stroke-dasharray:none;stroke-opacity:1" id="rect3812" width="1.796" height="120.966" x="442.378" y="-468.137" transform="matrix(1.2914396e-3,0.9999992,-1,8.7558121e-5,0,0)"/></g><rect style="fill:#7f7f7f;fill-opacity:1;fill-rule:nonzero;stroke:none;stroke-width:10;stroke-linejoin:miter;stroke-miterlimit:4;stroke-dasharray:none;stroke-opacity:1" id="rect3889" width="3.022" height="171.685" x="72.289" y="-199.442" transform="matrix(1.0893908e-3,0.9999994,-1,1.0379751e-4,0,0)"/><g id="g3833" transform="matrix(1.3936475,0,0,1.3936475,-453.84947,-525.84782)"><rect style="opacity:1;fill:#7f7f7f;fill-opacity:1;fill-rule:nonzero;stroke:none;stroke-width:10;stroke-linejoin:miter;stroke-miterlimit:4;stroke-dasharray:none;stroke-opacity:1" id="rect3797" width="2.168" height="121.976" x="505.586" y="-468.164" transform="matrix(1.0786415e-3,0.9999994,-1,1.048319e-4,0,0)"/><rect style="opacity:1;fill:#7f7f7f;fill-opacity:1;fill-rule:nonzero;stroke:none;stroke-width:10;stroke-linejoin:miter;stroke-miterlimit:4;stroke-dasharray:none;stroke-opacity:1" id="rect3795" width="2.441" height="78.097" x="345.641" y="429.603"/></g><path id="path3799" d="M 178.50114,82.976911 L 152.77295,128.48217 L 132.72682,124.99805 L 118.12464,121.97434 L 89.150461,95.67545 L 73.403481,114.19728 L 48.124957,102.3886 L 32.539741,157.36924 L 37.13754,161.15821 L 52.119251,113.36356 L 74.11898,123.80349 L 91.116494,105.91005 L 116.15238,129.21009 L 133.67252,132.16538 L 156.3504,137.47865 L 184.87073,86.187745 L 193.3669,61.426182 L 187.69539,56.702461 L 178.50114,82.976911 z" style="fill:#484848;fill-opacity:1;fill-rule:nonzero;stroke:none;stroke-width:10;stroke-linejoin:miter;stroke-miterlimit:4;stroke-opacity:1"/><rect id="rect3852" width="3.401" height="108.84" x="196.122" y="72.754" style="fill:#7f7f7f;fill-opacity:1;fill-rule:nonzero;stroke:none;stroke-width:10;stroke-linejoin:miter;stroke-miterlimit:4;stroke-dasharray:none;stroke-opacity:1"/><g id="g4211" transform="matrix(1,0,0,1.7076536,0,-94.176474)"><path style="fill:#1700d9;fill-opacity:1;fill-rule:nonzero;stroke:none;stroke-width:10;stroke-linejoin:miter;stroke-miterlimit:4;stroke-dasharray:none;stroke-opacity:1" id="path3144" d="M 287.89348 369.75159 A 81.064743 81.064743 0 1 1 125.76399,369.75159 A 81.064743 81.064743 0 1 1 287.89348 369.75159 z" transform="matrix(1.1049029,0,0,0.2500777,-90.202671,68.559821)"/><path style="fill:#df0000;fill-opacity:1;fill-rule:nonzero;stroke:none;stroke-width:10;stroke-linejoin:miter;stroke-miterlimit:4;stroke-dasharray:none;stroke-opacity:1" id="path3134" d="M 139.55702,161.05312 L 173.46799,179.72008 C 186.52964,178.49029 198.53478,176.55157 208.24272,173.92922 C 216.00124,171.83346 221.58275,169.49241 225.08367,167.04022 L 139.91394,161.02745 L 139.55702,161.05312 z"/><path style="fill:#0bcf00;fill-opacity:1;fill-rule:nonzero;stroke:none;stroke-width:10;stroke-linejoin:miter;stroke-miterlimit:4;stroke-dasharray:none;stroke-opacity:1" id="path3152" d="M 139.26505,161.02745 L 97.82685,178.89924 C 110.38043,180.37542 124.65629,181.21301 139.77192,181.21301 C 151.85226,181.21301 163.36514,180.67779 173.91816,179.71026 L 139.58123,161.07287 L 139.26505,161.02745 z"/><path style="fill:#ffe133;fill-opacity:1;fill-rule:nonzero;stroke:none;stroke-width:10;stroke-linejoin:miter;stroke-miterlimit:4;stroke-dasharray:none;stroke-opacity:1" id="path3154" d="M 139.02865,160.92726 L 224.07078,167.00021 C 228.27176,163.94277 229.39134,160.61448 226.72012,157.24715 C 224.58526,154.55597 220.22323,152.0858 214.15072,149.90586 L 139.17037,160.8488 L 139.02865,160.92726 z"/><path style="fill:url(#linearGradient4247);fill-opacity:1;fill-rule:nonzero;stroke:none;stroke-width:10;stroke-linejoin:miter;stroke-miterlimit:4;stroke-opacity:1" id="rect3730" d="M 98.027094,178.89335 C 98.027094,178.89335 117.43733,181.11739 136.30499,181.11739 C 155.17264,181.11739 173.74434,179.61957 173.74434,179.61957 L 173.20176,197.77532 C 173.20176,197.77532 153.89017,199.52277 135.07184,199.27313 C 116.25351,199.02351 97.287209,197.13989 97.287209,197.13989 L 98.027094,178.89335 z"/><path style="opacity:.97000002;fill:url(#linearGradient4249);fill-opacity:1;fill-rule:nonzero;stroke:none;stroke-width:10;stroke-linejoin:miter;stroke-miterlimit:4;stroke-opacity:1" id="rect3759" d="M 173.64588,179.65967 C 173.64588,179.65967 186.26135,178.69342 201.25007,175.60074 C 216.20844,172.51433 224.89562,167.04168 224.89562,167.04168 L 224.30371,185.19706 C 224.30371,185.19706 216.26913,189.93302 203.54302,193.01944 C 190.81691,196.10586 173.25128,197.81504 173.25128,197.81504 L 173.64588,179.65967 z"/><path style="fill:url(#linearGradient4251);fill-opacity:1;fill-rule:nonzero;stroke:none;stroke-width:10;stroke-linejoin:miter;stroke-miterlimit:4;stroke-opacity:1" id="rect3770" d="M 48.740317,160.9258 C 48.740317,160.9258 47.922822,165.28945 59.778904,170.4945 C 71.710586,175.73274 98.045455,178.9739 98.045455,178.9739 L 97.307034,197.05182 C 97.307034,197.05182 70.80725,193.6022 59.105267,188.8817 C 47.57934,184.23221 48.131472,179.62225 48.131472,179.62225 L 48.740317,160.9258 z"/><path style="fill:url(#linearGradient4253);fill-opacity:1;fill-rule:nonzero;stroke:none;stroke-width:10;stroke-linejoin:miter;stroke-miterlimit:4;stroke-opacity:1" id="rect3781" d="M 224.25439,166.95094 C 224.25439,166.95094 225.09961,165.62292 226.59738,164.52266 C 228.06482,163.44469 228.15115,160.64196 228.15115,160.64196 L 227.95383,178.79734 C 227.95383,178.79734 227.39892,181.13484 226.4494,182.65535 C 225.51187,184.15663 224.35304,185.1971 224.35304,185.1971 L 224.25439,166.95094 z"/></g></g></g></svg>